<svg width="215" height="53" viewBox="0 0 215 53" fill="none" xmlns="http://www.w3.org/2000/svg">
  <path d="M24.7496 19.46C24.6711 20.7556 24.3963 22.0119 23.9252 23.2289C23.4737 24.4263 22.7965 25.5059 21.8935 26.4678C21.0102 27.41 19.8815 28.1559 18.5074 28.7056C17.1333 29.2552 15.5041 29.53 13.6196 29.53C11.9118 29.53 10.2924 29.2846 8.76127 28.7939C7.24979 28.3031 5.90516 27.5769 4.72738 26.615C3.56924 25.6335 2.65646 24.4263 1.98905 22.9933C1.32164 21.5407 0.98794 19.8624 0.98794 17.9583C0.98794 16.0543 1.32164 14.3857 1.98905 12.9528C2.65646 11.5002 3.58887 10.293 4.78627 9.33111C5.98368 8.34963 7.36757 7.61352 8.93794 7.12278C10.5083 6.63204 12.2063 6.38667 14.0318 6.38667C16.5837 6.38667 18.7626 6.76944 20.5685 7.535C22.3941 8.28092 23.8565 9.31148 24.9557 10.6267C26.0746 11.9419 26.8107 13.4631 27.1641 15.1906H19.5379C19.3613 14.6409 19.0079 14.1796 18.4779 13.8067C17.9676 13.4141 17.3394 13.1196 16.5935 12.9233C15.8476 12.7074 15.0133 12.5994 14.0907 12.5994C12.9522 12.5994 11.9707 12.7957 11.1463 13.1883C10.3218 13.5613 9.68387 14.1404 9.23239 14.9256C8.80053 15.7107 8.58461 16.7217 8.58461 17.9583C8.58461 19.2146 8.82998 20.255 9.32072 21.0794C9.83109 21.9039 10.5476 22.5124 11.4702 22.905C12.4124 23.2976 13.5215 23.4939 14.7974 23.4939C16.0341 23.4939 17.1333 23.3565 18.0952 23.0817C19.057 22.7872 19.8324 22.3456 20.4213 21.7567C21.0298 21.1481 21.4028 20.3826 21.5402 19.46H24.7496ZM15.2685 21.4917V17.1928H27.3407V29H22.0702L20.9513 20.5494L22.2763 21.4917H15.2685ZM29.1589 12.0694H36.8145L37.8156 18.0467V29H30.3367V17.9583L29.1589 12.0694ZM45.2945 11.7161V18.0467C44.6271 17.9289 44.0284 17.8504 43.4984 17.8111C42.9684 17.7522 42.4972 17.7228 42.085 17.7228C41.3391 17.7228 40.6422 17.8602 39.9945 18.135C39.3467 18.3902 38.8167 18.8613 38.4045 19.5483C38.0119 20.2354 37.8156 21.2169 37.8156 22.4928L36.4906 20.8439C36.6869 19.6269 36.9322 18.4687 37.2267 17.3694C37.5408 16.2506 37.953 15.2593 38.4634 14.3956C38.9737 13.5122 39.6215 12.8154 40.4067 12.305C41.1919 11.7946 42.1734 11.5394 43.3511 11.5394C43.6456 11.5394 43.9498 11.5591 44.2639 11.5983C44.578 11.618 44.9215 11.6572 45.2945 11.7161ZM57.1965 29.53C55.0961 29.53 53.2117 29.157 51.5431 28.4111C49.8942 27.6456 48.5889 26.5856 47.627 25.2311C46.6652 23.857 46.1842 22.267 46.1842 20.4611C46.1842 18.6748 46.6455 17.1143 47.5681 15.7794C48.5104 14.4446 49.7863 13.4043 51.3959 12.6583C53.0055 11.9124 54.8115 11.5394 56.8137 11.5394C58.9141 11.5394 60.7004 11.9713 62.1726 12.835C63.6448 13.6987 64.7735 14.9256 65.5587 16.5156C66.3439 18.0859 66.7365 19.9507 66.7365 22.11H52.3087V18.665H62.3787L60.3765 19.7839C60.2783 19.0183 60.082 18.3804 59.7876 17.87C59.4931 17.3596 59.1005 16.9769 58.6098 16.7217C58.1387 16.4469 57.5694 16.3094 56.902 16.3094C56.1561 16.3094 55.5181 16.4763 54.9881 16.81C54.4778 17.1437 54.0852 17.605 53.8104 18.1939C53.5552 18.7631 53.4276 19.4109 53.4276 20.1372C53.4276 21.0794 53.6337 21.8744 54.0459 22.5222C54.4778 23.1504 55.1255 23.6313 55.9892 23.965C56.8529 24.2987 57.9424 24.4656 59.2576 24.4656C60.5335 24.4656 61.7702 24.3085 62.9676 23.9944C64.1846 23.6607 65.3035 23.1896 66.3242 22.5811V26.8211C65.0679 27.7044 63.635 28.3817 62.0254 28.8528C60.4354 29.3043 58.8257 29.53 57.1965 29.53ZM79.2798 29.53C77.1794 29.53 75.295 29.157 73.6265 28.4111C71.9776 27.6456 70.6722 26.5856 69.7104 25.2311C68.7485 23.857 68.2676 22.267 68.2676 20.4611C68.2676 18.6748 68.7289 17.1143 69.6515 15.7794C70.5937 14.4446 71.8696 13.4043 73.4792 12.6583C75.0889 11.9124 76.8948 11.5394 78.897 11.5394C80.9974 11.5394 82.7837 11.9713 84.2559 12.835C85.7281 13.6987 86.8568 14.9256 87.642 16.5156C88.4272 18.0859 88.8198 19.9507 88.8198 22.11H74.392V18.665H84.462L82.4598 19.7839C82.3616 19.0183 82.1654 18.3804 81.8709 17.87C81.5765 17.3596 81.1839 16.9769 80.6931 16.7217C80.222 16.4469 79.6528 16.3094 78.9854 16.3094C78.2394 16.3094 77.6015 16.4763 77.0715 16.81C76.5611 17.1437 76.1685 17.605 75.8937 18.1939C75.6385 18.7631 75.5109 19.4109 75.5109 20.1372C75.5109 21.0794 75.717 21.8744 76.1292 22.5222C76.5611 23.1504 77.2089 23.6313 78.0726 23.965C78.9363 24.2987 80.0257 24.4656 81.3409 24.4656C82.6168 24.4656 83.8535 24.3085 85.0509 23.9944C86.2679 23.6607 87.3868 23.1896 88.4076 22.5811V26.8211C87.1513 27.7044 85.7183 28.3817 84.1087 28.8528C82.5187 29.3043 80.9091 29.53 79.2798 29.53ZM90.0894 12.0694H97.5683L98.746 19.2833V29H91.2671V18.135L90.0894 12.0694ZM104.605 11.5394C106.254 11.5394 107.658 11.8731 108.816 12.5406C109.974 13.1883 110.858 14.1109 111.466 15.3083C112.094 16.4861 112.408 17.87 112.408 19.46V29H104.929V20.52C104.929 19.5778 104.664 18.8515 104.134 18.3411C103.624 17.8307 102.898 17.5756 101.955 17.5756C101.288 17.5756 100.709 17.713 100.218 17.9878C99.7471 18.243 99.384 18.6257 99.1288 19.1361C98.8736 19.6269 98.746 20.2256 98.746 20.9322L96.5377 19.8133C96.8125 17.9681 97.3425 16.437 98.1277 15.22C98.9129 13.9833 99.8649 13.0607 100.984 12.4522C102.103 11.8437 103.31 11.5394 104.605 11.5394ZM138.368 18.2822L138.957 16.9278C140.625 16.9867 142.019 17.2517 143.138 17.7228C144.257 18.1939 145.091 18.8515 145.64 19.6956C146.21 20.52 146.494 21.5113 146.494 22.6694C146.494 23.8669 146.22 24.9465 145.67 25.9083C145.14 26.8702 144.325 27.6259 143.226 28.1756C142.127 28.7252 140.753 29 139.104 29H121.761L123.439 17.6639L121.761 6.91666H138.485C140.527 6.91666 142.127 7.39759 143.285 8.35944C144.443 9.30167 145.022 10.6169 145.022 12.305C145.022 13.2669 144.806 14.1698 144.374 15.0139C143.942 15.858 143.236 16.5744 142.254 17.1633C141.292 17.7326 139.997 18.1056 138.368 18.2822ZM129.181 27.3511L126.295 23.965H136.689C137.337 23.965 137.847 23.7981 138.22 23.4644C138.593 23.1111 138.78 22.64 138.78 22.0511C138.78 21.5211 138.593 21.0696 138.22 20.6967C137.867 20.3237 137.337 20.1372 136.63 20.1372H127.915V15.1906H135.512C136.022 15.1906 136.444 15.0335 136.778 14.7194C137.131 14.4054 137.308 14.003 137.308 13.5122C137.308 13.0607 137.151 12.6878 136.837 12.3933C136.522 12.0989 136.081 11.9517 135.512 11.9517H126.325L129.181 8.56556L130.683 17.6639L129.181 27.3511ZM159.077 29.53C156.839 29.53 154.876 29.157 153.188 28.4111C151.52 27.6652 150.214 26.615 149.272 25.2606C148.35 23.9061 147.888 22.3357 147.888 20.5494C147.888 18.7435 148.35 17.1633 149.272 15.8089C150.214 14.4544 151.52 13.4043 153.188 12.6583C154.876 11.9124 156.839 11.5394 159.077 11.5394C161.315 11.5394 163.268 11.9124 164.937 12.6583C166.625 13.4043 167.93 14.4544 168.853 15.8089C169.795 17.1633 170.266 18.7435 170.266 20.5494C170.266 22.3357 169.795 23.9061 168.853 25.2606C167.93 26.615 166.625 27.6652 164.937 28.4111C163.268 29.157 161.315 29.53 159.077 29.53ZM159.077 24.0828C159.862 24.0828 160.52 23.9454 161.05 23.6706C161.6 23.3957 162.012 22.9933 162.287 22.4633C162.581 21.9333 162.728 21.2954 162.728 20.5494C162.728 19.7839 162.581 19.1361 162.287 18.6061C162.012 18.0761 161.6 17.6737 161.05 17.3989C160.52 17.1241 159.862 16.9867 159.077 16.9867C158.312 16.9867 157.654 17.1241 157.104 17.3989C156.555 17.6737 156.133 18.0761 155.838 18.6061C155.564 19.1361 155.426 19.7839 155.426 20.5494C155.426 21.2954 155.564 21.9333 155.838 22.4633C156.133 22.9933 156.555 23.3957 157.104 23.6706C157.654 23.9454 158.312 24.0828 159.077 24.0828ZM195.445 24.6717H193.237L197.329 12.0694H204.808L198.802 29H191.176L186.317 15.6911H188.673L183.814 29H176.188L170.182 12.0694H177.661L181.753 24.6717H179.545L183.991 12.0694H190.999L195.445 24.6717ZM206.103 6.32778H213.582V29H206.103V6.32778Z" fill="currentColor"/>
  <path d="M41.9873 43.9408L42.1758 43.5205C43.0359 43.5301 43.7365 43.6606 44.2777 43.9119C44.8285 44.1631 45.2295 44.5013 45.4808 44.9266C45.7417 45.3518 45.8722 45.8301 45.8722 46.3616C45.8722 46.9415 45.7321 47.4536 45.4518 47.8982C45.1812 48.3427 44.7802 48.6954 44.2487 48.9564C43.7172 49.2076 43.0552 49.3333 42.2627 49.3333H35.0149L35.8701 43.7524L35.0149 38.4615H42.0018C43.0069 38.4615 43.78 38.6982 44.3211 39.1717C44.872 39.6356 45.1474 40.2783 45.1474 41.0997C45.1474 41.5346 45.0411 41.9598 44.8285 42.3753C44.6256 42.7812 44.2922 43.1291 43.8283 43.419C43.3741 43.6992 42.7604 43.8732 41.9873 43.9408ZM36.9428 48.7969L36.2035 47.7967H42.0453C42.6445 47.7967 43.1083 47.6614 43.4369 47.3908C43.7751 47.1106 43.9443 46.7144 43.9443 46.2022C43.9443 45.661 43.7461 45.2406 43.3499 44.941C42.9634 44.6415 42.3884 44.4917 41.6249 44.4917H36.9138V43.0131H41.4365C41.9487 43.0131 42.3739 42.873 42.7121 42.5927C43.0504 42.3028 43.2195 41.8921 43.2195 41.3606C43.2195 40.9644 43.0793 40.6406 42.7991 40.3894C42.5188 40.1285 42.113 39.998 41.5815 39.998H36.2035L36.9428 38.9978L37.7111 43.7524L36.9428 48.7969ZM52.9395 46.84V45.26H60.5353V46.84H52.9395ZM57.984 38.4615L63.2025 49.3333H61.1586L56.4185 39.1862H57.1578L52.4177 49.3333H50.3738L55.5922 38.4615H57.984ZM70.2099 43.361H74.6311C75.269 43.361 75.7715 43.2161 76.1387 42.9261C76.5156 42.6362 76.704 42.24 76.704 41.7375C76.704 41.2253 76.5156 40.8291 76.1387 40.5488C75.7715 40.2589 75.269 40.114 74.6311 40.114H69.9345L70.7898 39.0413V49.3333H68.8763V38.4615H74.8051C75.5685 38.4615 76.2353 38.6016 76.8055 38.8818C77.3853 39.1524 77.8347 39.5341 78.1536 40.027C78.4822 40.5102 78.6465 41.0804 78.6465 41.7375C78.6465 42.3753 78.4822 42.9406 78.1536 43.4335C77.8347 43.9167 77.3853 44.2984 76.8055 44.5787C76.2353 44.8492 75.5685 44.9845 74.8051 44.9845H70.2099V43.361ZM72.3553 44.2453H74.6021L78.9219 49.3333H76.6316L72.3553 44.2453ZM96.3557 45.028C96.2591 45.9171 95.945 46.7047 95.4135 47.3908C94.8916 48.0673 94.2055 48.594 93.3551 48.9709C92.5047 49.3477 91.5335 49.5362 90.4414 49.5362C89.2238 49.5362 88.156 49.2994 87.2379 48.8259C86.3198 48.3524 85.6047 47.6952 85.0925 46.8545C84.5803 46.0041 84.3243 45.0184 84.3243 43.8974C84.3243 42.7764 84.5803 41.7955 85.0925 40.9547C85.6047 40.1043 86.3198 39.4423 87.2379 38.9688C88.156 38.4953 89.2238 38.2585 90.4414 38.2585C91.5335 38.2585 92.5047 38.447 93.3551 38.8238C94.2055 39.2007 94.8916 39.7274 95.4135 40.4039C95.945 41.0804 96.2591 41.868 96.3557 42.7667H94.4278C94.3215 42.1869 94.0895 41.6892 93.732 41.2736C93.3841 40.8581 92.9299 40.5392 92.3694 40.3169C91.8089 40.085 91.1614 39.969 90.427 39.969C89.5765 39.969 88.8373 40.1285 88.2091 40.4474C87.5906 40.7663 87.1123 41.2205 86.774 41.81C86.4358 42.3995 86.2667 43.0953 86.2667 43.8974C86.2667 44.6995 86.4358 45.3952 86.774 45.9847C87.1123 46.5742 87.5906 47.0284 88.2091 47.3473C88.8373 47.6662 89.5765 47.8257 90.427 47.8257C91.1614 47.8257 91.8089 47.7146 92.3694 47.4923C92.9299 47.27 93.3841 46.9511 93.732 46.5356C94.0895 46.1104 94.3215 45.6078 94.4278 45.028H96.3557ZM111.143 43.1001V44.6946H103.547V43.1001H111.143ZM104.808 43.8974L104.04 48.7534L103.127 47.6807H111.563V49.3333H102.083L102.953 43.8974L102.083 38.4615H111.491V40.114H103.127L104.04 39.0413L104.808 43.8974ZM119.82 38.4615V48.478L118.965 47.6517H127.155V49.3333H117.907V38.4615H119.82ZM137.974 49.5362C136.737 49.5362 135.65 49.2994 134.712 48.8259C133.775 48.3524 133.045 47.6952 132.524 46.8545C132.002 46.0041 131.741 45.0184 131.741 43.8974C131.741 42.7764 132.002 41.7955 132.524 40.9547C133.045 40.1043 133.775 39.4423 134.712 38.9688C135.65 38.4953 136.737 38.2585 137.974 38.2585C139.211 38.2585 140.298 38.4953 141.235 38.9688C142.173 39.4423 142.903 40.1043 143.424 40.9547C143.946 41.7955 144.207 42.7764 144.207 43.8974C144.207 45.0184 143.946 46.0041 143.424 46.8545C142.903 47.6952 142.173 48.3524 141.235 48.8259C140.298 49.2994 139.211 49.5362 137.974 49.5362ZM137.974 47.8257C138.853 47.8257 139.612 47.6662 140.25 47.3473C140.888 47.0284 141.38 46.5742 141.728 45.9847C142.086 45.3952 142.265 44.6995 142.265 43.8974C142.265 43.0953 142.086 42.3995 141.728 41.81C141.38 41.2205 140.888 40.7663 140.25 40.4474C139.612 40.1285 138.853 39.969 137.974 39.969C137.104 39.969 136.346 40.1285 135.698 40.4474C135.06 40.7663 134.563 41.2205 134.205 41.81C133.857 42.3995 133.683 43.0953 133.683 43.8974C133.683 44.6995 133.857 45.3952 134.205 45.9847C134.563 46.5742 135.06 47.0284 135.698 47.3473C136.346 47.6662 137.104 47.8257 137.974 47.8257ZM160.489 48.1736L159.707 48.2606V38.4615H161.562V49.3333H159.127L151.502 39.5341L152.27 39.4472V49.3333H150.415V38.4615H152.908L160.489 48.1736ZM169.789 46.84V45.26H177.384V46.84H169.789ZM174.833 38.4615L180.052 49.3333H178.008L173.268 39.1862H174.007L169.267 49.3333H167.223L172.441 38.4615H174.833Z" fill="currentColor"/>
</svg>
