<svg width="215" height="53" viewBox="0 0 215 53" fill="none" xmlns="http://www.w3.org/2000/svg">
  <path d="M24.7352 19.46C24.6567 20.7556 24.3819 22.0119 23.9108 23.2289C23.4593 24.4263 22.7821 25.5059 21.8791 26.4678C20.9958 27.41 19.8671 28.1559 18.493 28.7056C17.1189 29.2552 15.4897 29.53 13.6052 29.53C11.8975 29.53 10.278 29.2846 8.7469 28.7939C7.23542 28.3031 5.89079 27.5769 4.71301 26.615C3.55486 25.6335 2.64209 24.4263 1.97468 22.9933C1.30727 21.5407 0.973566 19.8624 0.973566 17.9583C0.973566 16.0543 1.30727 14.3857 1.97468 12.9528C2.64209 11.5002 3.57449 10.293 4.7719 9.33111C5.96931 8.34963 7.3532 7.61352 8.92357 7.12278C10.4939 6.63204 12.1919 6.38667 14.0175 6.38667C16.5693 6.38667 18.7482 6.76944 20.5541 7.535C22.3797 8.28092 23.8421 9.31148 24.9413 10.6267C26.0602 11.9419 26.7963 13.4631 27.1497 15.1906H19.5236C19.3469 14.6409 18.9936 14.1796 18.4636 13.8067C17.9532 13.4141 17.325 13.1196 16.5791 12.9233C15.8332 12.7074 14.9989 12.5994 14.0763 12.5994C12.9378 12.5994 11.9563 12.7957 11.1319 13.1883C10.3075 13.5613 9.66949 14.1404 9.21801 14.9256C8.78616 15.7107 8.57023 16.7217 8.57023 17.9583C8.57023 19.2146 8.8156 20.255 9.30634 21.0794C9.81671 21.9039 10.5332 22.5124 11.4558 22.905C12.398 23.2976 13.5071 23.4939 14.783 23.4939C16.0197 23.4939 17.1189 23.3565 18.0808 23.0817C19.0426 22.7872 19.818 22.3456 20.4069 21.7567C21.0154 21.1481 21.3884 20.3826 21.5258 19.46H24.7352ZM15.2541 21.4917V17.1928H27.3263V29H22.0558L20.9369 20.5494L22.2619 21.4917H15.2541ZM29.1445 12.0694H36.8001L37.8012 18.0467V29H30.3223V17.9583L29.1445 12.0694ZM45.2801 11.7161V18.0467C44.6127 17.9289 44.014 17.8504 43.484 17.8111C42.954 17.7522 42.4829 17.7228 42.0706 17.7228C41.3247 17.7228 40.6279 17.8602 39.9801 18.135C39.3323 18.3902 38.8023 18.8613 38.3901 19.5483C37.9975 20.2354 37.8012 21.2169 37.8012 22.4928L36.4762 20.8439C36.6725 19.6269 36.9179 18.4687 37.2123 17.3694C37.5264 16.2506 37.9386 15.2593 38.449 14.3956C38.9594 13.5122 39.6071 12.8154 40.3923 12.305C41.1775 11.7946 42.159 11.5394 43.3368 11.5394C43.6312 11.5394 43.9355 11.5591 44.2495 11.5983C44.5636 11.618 44.9071 11.6572 45.2801 11.7161ZM57.2108 29.53C55.1105 29.53 53.226 29.157 51.5575 28.4111C49.9086 27.6456 48.6032 26.5856 47.6414 25.2311C46.6795 23.857 46.1986 22.267 46.1986 20.4611C46.1986 18.6748 46.6599 17.1143 47.5825 15.7794C48.5247 14.4446 49.8007 13.4043 51.4103 12.6583C53.0199 11.9124 54.8258 11.5394 56.8281 11.5394C58.9284 11.5394 60.7147 11.9713 62.187 12.835C63.6592 13.6987 64.7879 14.9256 65.5731 16.5156C66.3583 18.0859 66.7508 19.9507 66.7508 22.11H52.3231V18.665H62.3931L60.3908 19.7839C60.2927 19.0183 60.0964 18.3804 59.802 17.87C59.5075 17.3596 59.1149 16.9769 58.6242 16.7217C58.1531 16.4469 57.5838 16.3094 56.9164 16.3094C56.1705 16.3094 55.5325 16.4763 55.0025 16.81C54.4921 17.1437 54.0995 17.605 53.8247 18.1939C53.5695 18.7631 53.442 19.4109 53.442 20.1372C53.442 21.0794 53.6481 21.8744 54.0603 22.5222C54.4921 23.1504 55.1399 23.6313 56.0036 23.965C56.8673 24.2987 57.9568 24.4656 59.272 24.4656C60.5479 24.4656 61.7845 24.3085 62.982 23.9944C64.199 23.6607 65.3179 23.1896 66.3386 22.5811V26.8211C65.0823 27.7044 63.6494 28.3817 62.0397 28.8528C60.4497 29.3043 58.8401 29.53 57.2108 29.53ZM79.2942 29.53C77.1938 29.53 75.3094 29.157 73.6408 28.4111C71.992 27.6456 70.6866 26.5856 69.7247 25.2311C68.7629 23.857 68.282 22.267 68.282 20.4611C68.282 18.6748 68.7433 17.1143 69.6658 15.7794C70.6081 14.4446 71.884 13.4043 73.4936 12.6583C75.1033 11.9124 76.9092 11.5394 78.9114 11.5394C81.0118 11.5394 82.7981 11.9713 84.2703 12.835C85.7425 13.6987 86.8712 14.9256 87.6564 16.5156C88.4416 18.0859 88.8342 19.9507 88.8342 22.11H74.4064V18.665H84.4764L82.4742 19.7839C82.376 19.0183 82.1797 18.3804 81.8853 17.87C81.5908 17.3596 81.1983 16.9769 80.7075 16.7217C80.2364 16.4469 79.6671 16.3094 78.9997 16.3094C78.2538 16.3094 77.6158 16.4763 77.0858 16.81C76.5755 17.1437 76.1829 17.605 75.9081 18.1939C75.6529 18.7631 75.5253 19.4109 75.5253 20.1372C75.5253 21.0794 75.7314 21.8744 76.1436 22.5222C76.5755 23.1504 77.2233 23.6313 78.087 23.965C78.9507 24.2987 80.0401 24.4656 81.3553 24.4656C82.6312 24.4656 83.8679 24.3085 85.0653 23.9944C86.2823 23.6607 87.4012 23.1896 88.422 22.5811V26.8211C87.1657 27.7044 85.7327 28.3817 84.1231 28.8528C82.5331 29.3043 80.9234 29.53 79.2942 29.53ZM90.1037 12.0694H97.5826L98.7604 19.2833V29H91.2815V18.135L90.1037 12.0694ZM104.62 11.5394C106.269 11.5394 107.672 11.8731 108.83 12.5406C109.989 13.1883 110.872 14.1109 111.48 15.3083C112.109 16.4861 112.423 17.87 112.423 19.46V29H104.944V20.52C104.944 19.5778 104.679 18.8515 104.149 18.3411C103.638 17.8307 102.912 17.5756 101.97 17.5756C101.302 17.5756 100.723 17.713 100.233 17.9878C99.7615 18.243 99.3984 18.6257 99.1432 19.1361C98.888 19.6269 98.7604 20.2256 98.7604 20.9322L96.5521 19.8133C96.8269 17.9681 97.3569 16.437 98.1421 15.22C98.9273 13.9833 99.8793 13.0607 100.998 12.4522C102.117 11.8437 103.324 11.5394 104.62 11.5394ZM138.382 18.2822L138.971 16.9278C140.639 16.9867 142.033 17.2517 143.152 17.7228C144.271 18.1939 145.105 18.8515 145.655 19.6956C146.224 20.52 146.509 21.5113 146.509 22.6694C146.509 23.8669 146.234 24.9465 145.684 25.9083C145.154 26.8702 144.34 27.6259 143.24 28.1756C142.141 28.7252 140.767 29 139.118 29H121.775L123.454 17.6639L121.775 6.91666H138.5C140.541 6.91666 142.141 7.39759 143.299 8.35944C144.457 9.30167 145.036 10.6169 145.036 12.305C145.036 13.2669 144.821 14.1698 144.389 15.0139C143.957 15.858 143.25 16.5744 142.269 17.1633C141.307 17.7326 140.011 18.1056 138.382 18.2822ZM129.195 27.3511L126.31 23.965H136.704C137.351 23.965 137.862 23.7981 138.235 23.4644C138.608 23.1111 138.794 22.64 138.794 22.0511C138.794 21.5211 138.608 21.0696 138.235 20.6967C137.881 20.3237 137.351 20.1372 136.645 20.1372H127.929V15.1906H135.526C136.036 15.1906 136.458 15.0335 136.792 14.7194C137.145 14.4054 137.322 14.003 137.322 13.5122C137.322 13.0607 137.165 12.6878 136.851 12.3933C136.537 12.0989 136.095 11.9517 135.526 11.9517H126.339L129.195 8.56556L130.697 17.6639L129.195 27.3511ZM159.092 29.53C156.854 29.53 154.891 29.157 153.203 28.4111C151.534 27.6652 150.229 26.615 149.287 25.2606C148.364 23.9061 147.903 22.3357 147.903 20.5494C147.903 18.7435 148.364 17.1633 149.287 15.8089C150.229 14.4544 151.534 13.4043 153.203 12.6583C154.891 11.9124 156.854 11.5394 159.092 11.5394C161.329 11.5394 163.283 11.9124 164.951 12.6583C166.639 13.4043 167.945 14.4544 168.867 15.8089C169.809 17.1633 170.281 18.7435 170.281 20.5494C170.281 22.3357 169.809 23.9061 168.867 25.2606C167.945 26.615 166.639 27.6652 164.951 28.4111C163.283 29.157 161.329 29.53 159.092 29.53ZM159.092 24.0828C159.877 24.0828 160.534 23.9454 161.064 23.6706C161.614 23.3957 162.026 22.9933 162.301 22.4633C162.596 21.9333 162.743 21.2954 162.743 20.5494C162.743 19.7839 162.596 19.1361 162.301 18.6061C162.026 18.0761 161.614 17.6737 161.064 17.3989C160.534 17.1241 159.877 16.9867 159.092 16.9867C158.326 16.9867 157.668 17.1241 157.119 17.3989C156.569 17.6737 156.147 18.0761 155.853 18.6061C155.578 19.1361 155.441 19.7741 155.441 20.52C155.441 21.2856 155.578 21.9333 155.853 22.4633C156.147 22.9933 156.569 23.3957 157.119 23.6706C157.668 23.9454 158.326 24.0828 159.092 24.0828ZM195.459 24.6717H193.251L197.344 12.0694H204.823L198.816 29H191.19L186.332 15.6911H188.687L183.829 29H176.203L170.196 12.0694H177.675L181.768 24.6717H179.559L184.006 12.0694H191.013L195.459 24.6717ZM206.117 6.32778H213.596V29H206.117V6.32778Z" fill="#F3ECE4"/>
  <path d="M55.555 38.4615V48.478L54.6997 47.6517H62.8898V49.3333H53.6415V38.4615H55.555ZM69.9086 44.6656C69.9086 45.3131 70.039 45.8736 70.3 46.3471C70.5609 46.8207 70.9329 47.1879 71.4161 47.4488C71.909 47.7001 72.4936 47.8257 73.1701 47.8257C73.8562 47.8257 74.4409 47.7001 74.9241 47.4488C75.4073 47.1879 75.7793 46.8207 76.0403 46.3471C76.3012 45.8736 76.4317 45.3131 76.4317 44.6656V38.4615H78.3451V44.7381C78.3451 45.6948 78.1277 46.5356 77.6928 47.2604C77.2579 47.9755 76.6539 48.536 75.8808 48.9419C75.1077 49.3381 74.2041 49.5362 73.1701 49.5362C72.1458 49.5362 71.2422 49.3381 70.4594 48.9419C69.6863 48.536 69.0823 47.9755 68.6475 47.2604C68.2126 46.5356 67.9951 45.6948 67.9951 44.7381V38.4615H69.9086V44.6656ZM96.4547 45.028C96.358 45.9171 96.044 46.7047 95.5124 47.3908C94.9906 48.0673 94.3045 48.594 93.4541 48.9709C92.6036 49.3477 91.6324 49.5362 90.5404 49.5362C89.3228 49.5362 88.2549 49.2994 87.3369 48.8259C86.4188 48.3524 85.7037 47.6952 85.1915 46.8545C84.6793 46.0041 84.4232 45.0184 84.4232 43.8974C84.4232 42.7764 84.6793 41.7955 85.1915 40.9547C85.7037 40.1043 86.4188 39.4423 87.3369 38.9688C88.2549 38.4953 89.3228 38.2585 90.5404 38.2585C91.6324 38.2585 92.6036 38.447 93.4541 38.8238C94.3045 39.2007 94.9906 39.7274 95.5124 40.4039C96.044 41.0804 96.358 41.868 96.4547 42.7667H94.5267C94.4204 42.1869 94.1885 41.6892 93.8309 41.2736C93.483 40.8581 93.0288 40.5392 92.4683 40.3169C91.9078 40.085 91.2604 39.969 90.5259 39.969C89.6755 39.969 88.9362 40.1285 88.3081 40.4474C87.6896 40.7663 87.2112 41.2205 86.873 41.81C86.5348 42.3995 86.3656 43.0953 86.3656 43.8974C86.3656 44.6995 86.5348 45.3952 86.873 45.9847C87.2112 46.5742 87.6896 47.0284 88.3081 47.3473C88.9362 47.6662 89.6755 47.8257 90.5259 47.8257C91.2604 47.8257 91.9078 47.7146 92.4683 47.4923C93.0288 47.27 93.483 46.9511 93.8309 46.5356C94.1885 46.1104 94.4204 45.6078 94.5267 45.028H96.4547ZM111.242 43.1001V44.6946H103.646V43.1001H111.242ZM104.907 43.8974L104.139 48.7534L103.226 47.6807H111.662V49.3333H102.182L103.052 43.8974L102.182 38.4615H111.59V40.114H103.226L104.139 39.0413L104.907 43.8974ZM119.34 43.361H123.761C124.399 43.361 124.901 43.2161 125.268 42.9261C125.645 42.6362 125.834 42.24 125.834 41.7375C125.834 41.2253 125.645 40.8291 125.268 40.5488C124.901 40.2589 124.399 40.114 123.761 40.114H119.064L119.919 39.0413V49.3333H118.006V38.4615H123.935C124.698 38.4615 125.365 38.6016 125.935 38.8818C126.515 39.1524 126.964 39.5341 127.283 40.027C127.612 40.5102 127.776 41.0804 127.776 41.7375C127.776 42.3753 127.612 42.9406 127.283 43.4335C126.964 43.9167 126.515 44.2984 125.935 44.5787C125.365 44.8492 124.698 44.9845 123.935 44.9845H119.34V43.361ZM121.485 44.2453H123.732L128.052 49.3333H125.761L121.485 44.2453ZM144.179 48.1736L143.396 48.2606V38.4615H145.251V49.3333H142.816L135.191 39.5341L135.96 39.4472V49.3333H134.104V38.4615H136.597L144.179 48.1736ZM160.711 43.1001V44.6946H153.116V43.1001H160.711ZM154.377 43.8974L153.608 48.7534L152.695 47.6807H161.132V49.3333H151.652L152.521 43.8974L151.652 38.4615H161.059V40.114H152.695L153.608 39.0413L154.377 43.8974Z" fill="#F3ECE4"/>
</svg>
